<?xml version="1.0" encoding="utf-8"?>
<!-- Generator: Adobe Illustrator 16.0.0, SVG Export Plug-In . SVG Version: 6.00 Build 0)  -->
<svg version="1.2" baseProfile="tiny" id="Ebene_1" xmlns="http://www.w3.org/2000/svg" xmlns:xlink="http://www.w3.org/1999/xlink"
	 x="0px" y="0px" width="35.716px" height="27.212px" viewBox="0 0 35.716 27.212" xml:space="preserve">
<path fill="none" d="M18.246,22.269L18.246,22.269L18.246,22.269c0,0.512-0.298,0.979-0.769,1.201
	c-0.19,0.092-0.395,0.135-0.598,0.135c-0.3,0-0.597-0.096-0.842-0.283l-4.481-3.436c-0.206,0.051-0.423,0.08-0.647,0.08h-4.49
	c-1.473,0-2.667-1.166-2.667-2.607V9.75c0-1.441,1.194-2.609,2.667-2.609h4.491c0.261,0,0.512,0.039,0.751,0.106l4.377-3.355
	c0.411-0.315,0.972-0.373,1.44-0.149c0.47,0.224,0.769,0.689,0.769,1.2V22.269z M22.73,16.779l-1.497-1.465
	c0.345-0.463,0.552-1.027,0.552-1.645c0-0.678-0.25-1.301-0.663-1.786l1.486-1.454c0.792,0.86,1.279,1.994,1.279,3.24
	C23.887,14.853,23.452,15.935,22.73,16.779z M24.672,18.679c1.215-1.334,1.955-3.088,1.955-5.01c0-1.985-0.791-3.791-2.079-5.138
	l1.487-1.454c1.668,1.721,2.694,4.041,2.694,6.592c0,2.488-0.976,4.758-2.569,6.465L24.672,18.679z M29.733,23.585l-1.486-1.455
	c2.109-2.223,3.403-5.195,3.403-8.461c0-3.329-1.345-6.353-3.529-8.589l1.486-1.454c2.563,2.609,4.146,6.148,4.146,10.043
	C33.752,17.503,32.223,20.99,29.733,23.585z"/>
</svg>
