<?xml version="1.0" encoding="utf-8"?>
<!-- Generator: Adobe Illustrator 16.0.0, SVG Export Plug-In . SVG Version: 6.00 Build 0)  -->
<svg version="1.2" baseProfile="tiny" id="Ebene_1" xmlns="http://www.w3.org/2000/svg" xmlns:xlink="http://www.w3.org/1999/xlink"
	 x="0px" y="0px" width="35.716px" height="27.212px" viewBox="0 0 35.716 27.212" xml:space="preserve">
<path fill="none" d="M18.246,22.269L18.246,22.269L18.246,22.269c0,0.512-0.298,0.979-0.769,1.201
	c-0.19,0.092-0.395,0.135-0.598,0.135c-0.3,0-0.597-0.096-0.842-0.283l-4.481-3.436c-0.206,0.051-0.423,0.08-0.647,0.08h-4.49
	c-1.473,0-2.667-1.166-2.667-2.607V9.75c0-1.441,1.194-2.609,2.667-2.609h4.491c0.261,0,0.512,0.039,0.751,0.106l4.377-3.355
	c0.411-0.315,0.972-0.373,1.44-0.149c0.47,0.224,0.769,0.689,0.769,1.2V22.269z"/>
</svg>
