<?xml version="1.0" encoding="utf-8"?>
<!-- Generator: Adobe Illustrator 16.0.0, SVG Export Plug-In . SVG Version: 6.00 Build 0)  -->
<!DOCTYPE svg PUBLIC "-//W3C//DTD SVG 1.1//EN" "http://www.w3.org/Graphics/SVG/1.1/DTD/svg11.dtd">
<svg version="1.1" id="Ebene_1" xmlns="http://www.w3.org/2000/svg" xmlns:xlink="http://www.w3.org/1999/xlink" x="0px" y="0px"
	 width="453.543px" height="453.543px" viewBox="0 0 453.543 453.543" enable-background="new 0 0 453.543 453.543"
	 xml:space="preserve">
<rect x="0" y="0" width="453.543" height="453.543"/>
<g>
	<g>
		<path fill="#FFFFFF" d="M64.831,357.501h-0.032c-0.83,1.529-1.758,2.393-3.776,2.393c-3.427,0-4.924-2.881-4.924-5.665
			c0-2.783,1.498-5.647,4.924-5.647c1.44,0,3.011,0.813,3.776,2.229h0.032v-3.972c0-0.732-0.284-1.317-1.058-1.317h-1.18v-1.043
			h4.159v13.185c0,0.537,0.317,0.814,0.83,0.814h1.311v1.074h-4.094v-2.051H64.831z M58.272,354.229
			c0,2.589,0.896,4.379,3.003,4.379c2.563,0,3.492-2.1,3.492-4.379c0-2.263-0.928-4.378-3.264-4.378
			C59.2,349.851,58.272,351.966,58.272,354.229z"/>
		<path fill="#FFFFFF" d="M79.774,357.631h-0.033c-0.896,1.433-2.271,2.263-4.029,2.263c-2.4,0-3.646-1.058-3.646-3.581v-5.29
			c0-0.684-0.163-1.042-0.903-1.042h-1.375v-1.058h4.224v7.194c0,1.579,0.578,2.49,2.335,2.49c2.182,0,3.427-1.725,3.427-3.548
			v-4.037c0-0.684-0.163-1.042-0.896-1.042h-1.375v-1.058h4.224v8.546c0,0.699,0.162,1.041,0.896,1.041h1.473v1.075h-4.29v-1.954
			H79.774z M75.68,345.847c0,0.684-0.545,1.22-1.221,1.22c-0.667,0-1.213-0.504-1.213-1.22c0-0.7,0.546-1.205,1.213-1.205
			C75.135,344.674,75.68,345.18,75.68,345.847z M80.319,345.847c0,0.684-0.545,1.22-1.22,1.22c-0.668,0-1.213-0.504-1.213-1.22
			c0-0.7,0.545-1.205,1.213-1.205C79.774,344.642,80.319,345.18,80.319,345.847z"/>
		<path fill="#FFFFFF" d="M86.529,355.255c0.35,2.181,2.076,3.581,4.224,3.581c1.375,0,2.368-0.668,2.368-1.758
			c0-2.93-7.65-0.668-7.65-5.34c0-2.279,2.075-3.141,4.061-3.141c1.286,0,2.563,0.455,3.524,1.317l0.415-1.058h1.025v4.184h-1.058
			c-0.26-2.019-1.986-3.354-3.842-3.354c-0.993,0-2.173,0.358-2.173,1.823c0,2.718,7.642,0.684,7.642,5.144
			c0,2.409-2.14,3.305-4.216,3.305c-1.416,0-2.816-0.439-3.874-1.417l-0.448,1.205h-1.188v-4.428h1.188V355.255z"/>
		<path fill="#FFFFFF" d="M97.882,355.255c0.358,2.181,2.083,3.581,4.232,3.581c1.375,0,2.36-0.668,2.36-1.758
			c0-2.93-7.642-0.668-7.642-5.34c0-2.279,2.075-3.141,4.061-3.141c1.278,0,2.563,0.455,3.524,1.317l0.415-1.058h1.025v4.184H104.8
			c-0.261-2.019-1.986-3.354-3.842-3.354c-0.993,0-2.173,0.358-2.173,1.823c0,2.718,7.642,0.684,7.642,5.144
			c0,2.409-2.141,3.305-4.224,3.305c-1.408,0-2.816-0.439-3.866-1.417l-0.456,1.205h-1.18v-4.428h1.18V355.255z"/>
		<path fill="#FFFFFF" d="M109.919,354.36c0,2.327,0.513,4.443,3.198,4.443c1.823,0,2.946-0.944,3.426-2.701h1.311
			c-0.513,2.44-2.083,3.792-4.769,3.792c-3.362,0-5.315-1.921-5.315-5.665c0-3.742,1.953-5.647,5.315-5.647
			c3.646,0,4.833,2.539,5.053,5.778H109.919z M115.999,353.301c0-1.985-0.896-3.646-2.946-3.646c-2.108,0-3.101,1.692-3.101,3.646
			H115.999z"/>
		<path fill="#FFFFFF" d="M123.388,357.436c0,0.7,0.163,1.042,0.895,1.042h1.441v1.074h-6.69v-1.074h1.473
			c0.741,0,0.896-0.342,0.896-1.042v-10.841c0-0.716-0.538-1.073-0.896-1.073h-1.473v-1.043h4.322v12.957H123.388z"/>
		<path fill="#FFFFFF" d="M135.613,357.501h-0.033c-0.831,1.529-1.758,2.393-3.776,2.393c-3.418,0-4.924-2.881-4.924-5.665
			c0-2.783,1.505-5.647,4.924-5.647c1.44,0,3.011,0.813,3.776,2.229h0.033v-3.972c0-0.732-0.285-1.317-1.058-1.317h-1.181v-1.043
			h4.159v13.185c0,0.537,0.318,0.814,0.83,0.814h1.319v1.074h-4.102v-2.051H135.613z M129.052,354.229
			c0,2.589,0.895,4.379,3.012,4.379c2.555,0,3.482-2.1,3.482-4.379c0-2.263-0.927-4.378-3.263-4.378
			C129.981,349.851,129.052,351.966,129.052,354.229z"/>
		<path fill="#FFFFFF" d="M152.321,354.229c0,3.272-2.213,5.665-5.859,5.665c-3.646,0-5.852-2.393-5.852-5.665
			c0-3.271,2.205-5.647,5.852-5.647C150.107,348.581,152.321,350.958,152.321,354.229z M142.75,354.229
			c0,2.458,0.895,4.607,3.711,4.607c2.815,0,3.711-2.149,3.711-4.607c0-2.457-0.896-4.605-3.711-4.605
			C143.645,349.623,142.75,351.772,142.75,354.229z"/>
		<path fill="#FFFFFF" d="M157.692,351.186h0.033c0.578-1.562,1.92-2.604,3.231-2.604c1.538,0,2.563,0.813,2.563,2.377
			c0,0.878-0.358,1.546-1.286,1.546c-0.602,0-1.277-0.374-1.277-1.059c0-0.83,0.545-1.171,1.375-1.171
			c-0.122-0.521-0.83-0.651-1.31-0.651c-2.14,0-3.263,2.475-3.263,4.736v3.076c0,0.7,0.415,1.042,1.147,1.042h1.22v1.074h-6.689
			v-1.074h1.473c0.74,0,0.895-0.342,0.895-1.042v-6.413c0-0.684-0.155-1.042-0.895-1.042h-1.571v-1.058h4.321v2.263H157.692z"/>
		<path fill="#FFFFFF" d="M168.955,349.981v7.455c0,0.7,0.578,1.042,1.311,1.042h1.155v1.074h-6.82v-1.074h1.538
			c0.741,0,0.896-0.342,0.896-1.042v-7.455h-2.434v-1.058h2.434v-1.547c0-2.425,1.79-3.354,3.524-3.354
			c1.31,0,3.361,0.456,3.361,2.41c0,0.813-0.578,1.302-1.375,1.302c-0.937,0-1.188-0.521-1.188-1.106
			c0-0.554,0.447-0.847,0.895-0.911c-0.35-0.473-1.123-0.604-1.627-0.604c-0.896,0-1.669,0.831-1.669,2.02v1.822h2.531v1.058h-2.531
			V349.981z"/>
		<path fill="#FFFFFF" d="M261.019,357.436c0,0.7,0.163,1.042,0.911,1.042h1.433v1.074h-6.706v-1.074h1.497
			c0.716,0,0.88-0.342,0.88-1.042v-10.841c0-0.716-0.554-1.073-0.88-1.073h-1.497v-1.043h4.33v12.957H261.019z"/>
		<path fill="#FFFFFF" d="M276.026,354.229c0,3.272-2.213,5.665-5.859,5.665s-5.859-2.393-5.859-5.665
			c0-3.271,2.213-5.647,5.859-5.647S276.026,350.958,276.026,354.229z M266.455,354.229c0,2.458,0.911,4.607,3.711,4.607
			c2.833,0,3.711-2.149,3.711-4.607c0-2.457-0.878-4.605-3.711-4.605C267.366,349.623,266.455,351.772,266.455,354.229z"/>
		<path fill="#FFFFFF" d="M278.5,355.255c0.358,2.181,2.083,3.581,4.231,3.581c1.367,0,2.345-0.668,2.345-1.758
			c0-2.93-7.651-0.668-7.651-5.34c0-2.279,2.085-3.141,4.069-3.141c1.303,0,2.572,0.455,3.517,1.317l0.423-1.058h1.042v4.184h-1.074
			c-0.261-2.019-1.986-3.354-3.841-3.354c-0.978,0-2.182,0.358-2.182,1.823c0,2.718,7.65,0.684,7.65,5.144
			c0,2.409-2.148,3.305-4.199,3.305c-1.433,0-2.833-0.439-3.874-1.417l-0.456,1.205h-1.204v-4.428h1.204V355.255z"/>
		<path fill="#FFFFFF" d="M304.511,357.631c0,0.667,0.194,1.205,0.586,1.205c0.976,0,1.042-1.27,1.042-1.921v-0.944h1.073v0.651
			c0,2.408-0.846,3.304-2.571,3.304c-1.139,0-1.822-0.668-2.019-1.758c-1.106,1.221-2.408,1.758-4.036,1.758
			c-1.856,0-3.354-0.83-3.354-2.848c0-2.93,4.102-2.897,6.414-4.005c0.684-0.342,0.846-0.748,0.846-1.432
			c0-1.303-0.586-1.954-2.572-1.954c-0.878,0-2.018,0.131-2.637,0.896c0.651,0.131,1.042,0.472,1.042,1.155
			c0,0.896-0.716,1.205-1.367,1.205c-0.813,0-1.172-0.684-1.172-1.596c0-1.921,2.572-2.718,4.297-2.718
			c2.637,0,4.33,0.765,4.33,3.743v5.258H304.511z M302.558,353.757c-0.977,0.569-2.019,0.798-3.354,1.367
			c-1.237,0.521-1.725,1.025-1.725,1.823c0,1.188,0.617,1.889,1.79,1.889c1.498,0,3.288-1.4,3.288-2.963V353.757z"/>
		<path fill="#FFFFFF" d="M312.194,350.843h0.033c0.878-1.448,2.278-2.262,4.036-2.262c2.376,0,3.646,1.562,3.646,3.923v4.932
			c0,0.7,0.164,1.042,0.88,1.042h1.399v1.074h-6.349v-1.074h1.237c0.749,0,0.912-0.342,0.912-1.042v-5.095
			c0-1.562-0.586-2.49-2.344-2.49c-2.181,0-3.418,1.726-3.418,3.548v4.07c0,0.699,0.162,1.041,0.878,1.041h1.4v1.075h-6.642v-1.075
			h1.465c0.75,0,0.912-0.342,0.912-1.041v-6.414c0-0.684-0.162-1.042-0.912-1.042h-1.465v-1.058h4.298v1.888H312.194z"/>
		<path fill="#FFFFFF" d="M330.717,358.298c3.386,0,4.688,0.993,4.688,2.849c0,2.148-2.148,3.256-6.088,3.256
			c-3.646,0-5.762-0.813-5.762-2.62c0-1.434,1.237-1.938,2.409-2.003v-0.032c-1.074,0-1.986-0.749-1.986-1.856
			c0-1.14,0.944-2.018,2.019-2.213c-1.171-0.684-1.627-1.921-1.627-3.174c0-2.783,2.539-3.906,4.98-3.906
			c1.334,0,2.604,0.472,3.679,1.317c0.553-0.716,1.367-1.317,2.344-1.317c1.236,0,2.148,0.731,2.148,2.018
			c0,0.896-0.391,1.448-1.334,1.448c-0.684,0-1.043-0.487-1.043-1.105c0-0.651,0.424-0.945,1.075-0.945
			c-0.195-0.292-0.587-0.357-0.978-0.357c-0.618,0-1.334,0.456-1.692,0.896c0.325,0.667,0.619,1.48,0.619,2.425
			c0,1.79-1.855,3.646-4.818,3.646c-1.855,0-2.149-0.439-2.539-0.439c-0.618,0-1.172,0.536-1.172,1.155
			c0,0.668,0.586,0.928,1.302,0.928h3.776V358.298z M327.949,359.959c-1.335,0-2.702,0.569-2.702,1.611
			c0,1.497,2.019,1.757,4.33,1.757c2.214,0,4.103-0.585,4.103-1.691c0-1.205-0.782-1.677-2.246-1.677H327.949z M326.55,352.634
			c0,1.758,0.847,2.946,2.767,2.946c1.921,0,2.735-1.221,2.735-2.946s-0.814-2.979-2.735-2.979
			C327.365,349.623,326.55,350.876,326.55,352.634z"/>
		<path fill="#FFFFFF" d="M340.483,354.36c0,2.327,0.521,4.443,3.19,4.443c1.824,0,2.964-0.944,3.419-2.701h1.334
			c-0.521,2.44-2.083,3.792-4.785,3.792c-3.353,0-5.307-1.921-5.307-5.665c0-3.742,1.954-5.647,5.307-5.647
			c3.646,0,4.851,2.539,5.047,5.778H340.483z M346.537,353.301c0-1.985-0.911-3.646-2.962-3.646c-2.115,0-3.093,1.692-3.093,3.646
			H346.537z"/>
		<path fill="#FFFFFF" d="M353.961,357.436c0,0.7,0.162,1.042,0.879,1.042h1.432v1.074h-6.673v-1.074h1.464
			c0.749,0,0.912-0.342,0.912-1.042v-10.841c0-0.716-0.553-1.073-0.912-1.073h-1.464v-1.043h4.329v12.957H353.961z"/>
		<path fill="#FFFFFF" d="M359.43,354.36c0,2.327,0.488,4.443,3.19,4.443c1.822,0,2.93-0.944,3.418-2.701h1.335
			c-0.521,2.44-2.083,3.792-4.785,3.792c-3.354,0-5.307-1.921-5.307-5.665c0-3.742,1.952-5.647,5.307-5.647
			c3.646,0,4.817,2.539,5.045,5.778H359.43z M365.485,353.301c0-1.985-0.912-3.646-2.963-3.646c-2.116,0-3.092,1.692-3.092,3.646
			H365.485z"/>
		<path fill="#FFFFFF" d="M370.14,355.255c0.357,2.181,2.083,3.581,4.232,3.581c1.367,0,2.376-0.668,2.376-1.758
			c0-2.93-7.65-0.668-7.65-5.34c0-2.279,2.051-3.141,4.036-3.141c1.303,0,2.572,0.455,3.55,1.317l0.39-1.058h1.042v4.184h-1.074
			c-0.261-2.019-1.985-3.354-3.842-3.354c-0.977,0-2.148,0.358-2.148,1.823c0,2.718,7.618,0.684,7.618,5.144
			c0,2.409-2.116,3.305-4.2,3.305c-1.432,0-2.832-0.439-3.873-1.417l-0.456,1.205h-1.172v-4.428h1.172V355.255z"/>
	</g>
	<g>
		<path fill="#FFFFFF" d="M218.3,352.829c0,0.732-0.513,1.286-1.278,1.286c-0.741,0-1.277-0.554-1.277-1.286
			c0-0.731,0.504-1.285,1.277-1.285C217.754,351.544,218.3,352.098,218.3,352.829z"/>
	</g>
	<rect x="111.872" y="108.828" fill="#FFFFFF" width="69.658" height="19.46"/>
	<rect x="111.872" y="86.879" fill="#FFFFFF" width="69.658" height="19.451"/>
	<rect x="184.191" y="108.828" fill="#FFFFFF" width="69.666" height="19.46"/>
	<rect x="184.191" y="86.879" fill="#FFFFFF" width="69.666" height="19.451"/>
	<rect x="184.191" y="152.89" fill="#FFFFFF" width="69.666" height="19.459"/>
	<rect x="184.191" y="130.941" fill="#FFFFFF" width="69.666" height="19.459"/>
	<rect x="256.364" y="152.89" fill="#FFFFFF" width="69.666" height="19.459"/>
	<path fill="#FFFFFF" d="M363.368,284.515c0-4.167,2.052-7.683,6.479-7.683c4.362,0,6.218,3.516,6.218,7.683H363.368z
		 M380.558,286.745c-0.392-6.788-2.898-12.159-10.58-12.159c-7.065,0-11.167,4.069-11.167,11.882
		c0,7.797,4.102,11.866,11.167,11.866c5.631,0,8.919-2.816,9.961-7.977h-2.768c-0.976,3.728-3.32,5.73-7.129,5.73
		c-5.632,0-6.674-4.477-6.674-9.343H380.558z M344.878,275.302h-9.051v2.23h3.321c1.562,0,1.92,0.699,1.92,2.197v13.444
		c0,1.465-0.324,2.214-1.92,2.214h-3.125v2.246h14.031v-2.246h-2.605c-1.53,0-2.409-0.717-2.409-2.214v-6.429
		c0-4.737,2.345-9.913,6.837-9.913c1.042,0,2.507,0.229,2.735,1.334c-1.727,0-2.833,0.781-2.833,2.475
		c0,1.367,1.367,2.213,2.669,2.213c1.921,0,2.67-1.383,2.67-3.223c0-3.287-2.148-5.045-5.372-5.045
		c-2.767,0-5.565,2.246-6.804,5.533h-0.097v-4.817H344.878z M327.234,297.602h9.018v-2.247h-3.093c-1.562,0-1.921-0.716-1.921-2.213
		V275.27h-8.887v2.229h2.93c1.562,0,1.92,0.7,1.92,2.198v8.496c0,3.809-2.701,7.455-7.194,7.455c-3.678,0-4.947-1.953-4.947-5.258
		v-15.089h-8.822v2.23h2.864c1.562,0,1.921,0.699,1.921,2.197v11.117c0,5.241,2.67,7.487,7.65,7.487c3.679,0,6.543-1.774,8.464-4.77
		h0.098V297.602z M291.587,277.532h4.069v15.349c0,2.669,1.335,5.453,5.534,5.453c5.11,0,6.478-3.012,6.478-7.617v-2.084h-2.246
		v2.751c0,2.751-1.334,4.671-3.319,4.671c-1.629,0-2.345-0.862-2.345-2.815v-15.74h6.771v-2.229h-6.771v-9.311h-2.507
		c-0.293,3.89-1.172,8.659-5.631,9.311v2.263H291.587z M286.606,289.398c-0.748,4.069-3.125,6.69-6.966,6.69
		c-5.144,0-7.097-5.241-7.097-9.62c0-4.395,1.953-9.636,8.008-9.636c2.148,0,5.273,0.879,6.055,3.223
		c-1.659,0.26-2.44,1.091-2.44,2.734c0,1.237,1.139,2.23,2.343,2.23c1.856,0,2.996-1.351,2.996-3.305
		c0-4.948-5.438-7.129-9.701-7.129c-6.771,0-11.851,4.834-11.851,11.882c0,7.895,4.591,11.866,10.516,11.866
		c6.25,0,10.188-2.49,10.872-8.937H286.606z M261.832,268.124c0-1.384-1.204-2.589-2.604-2.589c-1.432,0-2.571,1.172-2.571,2.589
		c0,1.448,1.172,2.588,2.571,2.588C260.595,270.712,261.832,269.573,261.832,268.124 M261.93,275.302h-9.083v2.23h3.126
		c1.562,0,1.921,0.699,1.921,2.197v13.444c0,1.465-0.358,2.214-1.921,2.214h-3.126v2.246h14.032v-2.246h-3.028
		c-1.595,0-1.921-0.717-1.921-2.214V275.302z M232.794,275.302h-8.578v2.23h2.328c1.579,0,2.214,0.896,2.214,2.49v23.048
		c0,1.53-0.668,2.426-2.149,2.426h-2.36v2.246h13.362v-2.246h-2.636c-1.466,0-2.149-0.896-2.149-2.426v-9.213h0.098
		c1.563,2.702,3.874,4.477,7.911,4.477c6.999,0,10.157-5.664,10.157-11.963c0-6.121-3.126-11.785-10.157-11.785
		c-3.775,0-6.25,1.758-7.911,4.899h-0.098v-4.184H232.794z M239.663,295.649c-4.884,0-6.837-4.46-6.837-9.213
		c0-4.785,2.247-9.213,7.292-9.213c4.2,0,6.349,3.386,6.349,9.213C246.467,291.221,244.514,295.649,239.663,295.649
		 M190.238,275.302h-9.026v2.23h3.101c1.57,0,1.92,0.699,1.92,2.197v13.444c0,1.465-0.317,2.214-1.92,2.214h-3.101v2.246h13.884
		v-2.246h-2.905c-1.571,0-1.921-0.717-1.921-2.214v-8.464c0-3.81,2.653-7.472,7.194-7.472c3.687,0,4.932,1.953,4.932,5.258v10.678
		c0,1.465-0.317,2.214-1.92,2.214h-2.621v2.246h13.339v-2.246h-2.848c-1.563,0-1.921-0.717-1.921-2.214v-10.32
		c0-4.979-2.653-8.268-7.674-8.268c-3.679,0-6.527,1.758-8.448,4.77h-0.098v-4.054H190.238z M168.671,276.832
		c5.917,0,7.772,4.477,7.772,9.636c0,5.144-1.855,9.62-7.772,9.62c-5.925,0-7.781-4.477-7.781-9.62
		C160.89,281.309,162.746,276.832,168.671,276.832 M168.671,274.586c-7.683,0-12.322,4.997-12.322,11.882
		c0,6.869,4.639,11.866,12.322,11.866c7.674,0,12.289-4.997,12.289-11.866C180.992,279.583,176.345,274.586,168.671,274.586
		 M150.074,268.124c0-1.384-1.18-2.589-2.555-2.589c-1.441,0-2.564,1.172-2.564,2.589c0,1.448,1.155,2.588,2.564,2.588
		C148.895,270.712,150.074,269.573,150.074,268.124 M150.172,275.302h-9.059v2.23h3.109c1.562,0,1.92,0.699,1.92,2.197v13.444
		c0,1.465-0.325,2.214-1.92,2.214h-3.109v2.246h14.023v-2.246h-3.044c-1.571,0-1.921-0.717-1.921-2.214V275.302z M125.952,277.532
		h4.062v15.349c0,2.669,1.342,5.453,5.533,5.453c5.12,0,6.495-3.012,6.495-7.617v-2.084h-2.238v2.751
		c0,2.751-1.343,4.671-3.329,4.671c-1.628,0-2.401-0.862-2.401-2.815v-15.74h6.788v-2.229h-6.788v-9.311h-2.458
		c-0.293,3.89-1.156,8.659-5.632,9.311v2.263H125.952z M113.052,276.832c5.924,0,7.78,4.477,7.78,9.636
		c0,5.144-1.856,9.62-7.78,9.62c-5.917,0-7.772-4.477-7.772-9.62C105.28,281.309,107.135,276.832,113.052,276.832 M113.052,274.586
		c-7.675,0-12.29,4.997-12.29,11.882c0,6.869,4.639,11.866,12.29,11.866c7.683,0,12.322-4.997,12.322-11.866
		C125.374,279.583,120.735,274.586,113.052,274.586 M66.37,275.302h-9.059v2.23h3.101c1.571,0,1.921,0.699,1.921,2.197v13.444
		c0,1.465-0.317,2.214-1.921,2.214h-3.101v2.246h13.12v-2.246h-2.14c-1.571,0-1.921-0.717-1.921-2.214v-9.05
		c0-2.914,2.816-6.886,6.396-6.886c2.751,0,4.29,1.953,4.29,4.867v11.068c0,1.465-0.318,2.214-1.921,2.214h-2.173v2.246h12.256
		v-2.246h-2.214c-1.562,0-1.921-0.717-1.921-2.214v-9.05c0-3.109,2.914-6.886,6.438-6.886c2.523,0,4.256,1.449,4.256,4.281v11.654
		c0,1.465-0.325,2.214-1.92,2.214h-2.246v2.246h12.899v-2.246h-2.783c-1.571,0-1.921-0.717-1.921-2.214v-8.252
		c0-6.007-0.797-10.336-7.268-10.336c-3.582,0-5.852,1.758-8,4.834c-0.797-2.849-3.101-4.834-6.332-4.834
		c-3.907,0-5.762,1.823-7.773,4.834h-0.097v-4.118H66.37z"/>
	<path fill="#FFFFFF" d="M393.026,240.698h0.163l2.734-5.568h0.032v4.201c0,0.878,0.033,0.878-0.879,0.976v0.326h2.865v-0.326
		c-0.912-0.098-0.88-0.098-0.88-0.976v-4.518c0-0.61,0.261-0.993,1.01-1.025v-0.317h-1.726l-2.897,5.599l-2.8-5.599h-2.051v0.317
		c0.521,0,1.042,0.351,1.271,0.896v4.484c0,0.765-0.164,1.041-0.978,1.139v0.326h2.312v-0.326c-0.783-0.098-0.945-0.374-0.945-1.139
		v-4.004h0.033L393.026,240.698z M385.343,233.82h0.879c0.748,0,1.074,0.578,1.236,1.213h0.326v-1.562h-6.023v1.562h0.326
		c0.163-0.667,0.423-1.213,1.205-1.213h0.911v5.511c0,0.878,0.032,0.878-0.911,0.976v0.326h2.896v-0.326
		c-0.911-0.098-0.878-0.098-0.878-0.976v-5.511H385.343z M362.88,242.292c0-4.15,2.051-7.675,6.479-7.675
		c4.362,0,6.218,3.524,6.218,7.675H362.88z M380.102,244.538c-0.424-6.771-2.931-12.159-10.613-12.159
		c-7.064,0-11.166,4.053-11.166,11.866s4.102,11.882,11.166,11.882c5.632,0,8.952-2.832,9.962-7.976h-2.734
		c-1.01,3.712-3.354,5.73-7.194,5.73c-5.633,0-6.674-4.478-6.674-9.344H380.102z M337.781,233.088h-9.018v2.237h3.093
		c1.596,0,1.92,0.699,1.92,2.182v13.429c0,1.481-0.324,2.213-1.92,2.213h-3.093v2.23h13.9v-2.23h-2.93
		c-1.562,0-1.921-0.699-1.921-2.213v-8.48c0-3.809,2.669-7.455,7.194-7.455c3.68,0,4.947,1.953,4.947,5.241v10.694
		c0,1.481-0.324,2.213-1.919,2.213h-2.638v2.23h13.348v-2.23h-2.833c-1.595,0-1.92-0.699-1.92-2.213V240.6
		c0-4.949-2.669-8.253-7.684-8.253c-3.679,0-6.543,1.758-8.464,4.769h-0.098v-4.027H337.781z M316.034,234.617
		c5.925,0,7.781,4.484,7.781,9.628c0,5.159-1.856,9.637-7.781,9.637c-5.924,0-7.779-4.478-7.779-9.637
		C308.255,239.102,310.143,234.617,316.034,234.617 M316.034,232.379c-7.683,0-12.337,4.997-12.337,11.866
		c0,6.885,4.654,11.882,12.337,11.882c7.684,0,12.306-4.997,12.306-11.882C328.34,237.376,323.718,232.379,316.034,232.379
		 M282.83,233.088h-9.083v2.237h3.321c1.562,0,1.92,0.699,1.92,2.182v13.429c0,1.481-0.325,2.213-1.92,2.213h-3.158v2.23h14.03
		v-2.23h-2.604c-1.529,0-2.376-0.699-2.376-2.213v-6.43c0-4.736,2.344-9.921,6.836-9.921c1.042,0,2.508,0.228,2.768,1.343
		c-1.726,0-2.865,0.765-2.865,2.49c0,1.384,1.367,2.214,2.67,2.214c1.921,0,2.67-1.367,2.67-3.19c0-3.304-2.149-5.062-5.372-5.062
		c-2.767,0-5.567,2.238-6.804,5.534h-0.065v-4.825H282.83z M265.446,255.411h9.018v-2.229h-3.093c-1.595,0-1.921-0.7-1.921-2.214
		v-17.88h-8.887v2.237h2.93c1.563,0,1.921,0.699,1.921,2.182v8.464c0,3.81-2.702,7.455-7.194,7.455
		c-3.679,0-4.948-1.954-4.948-5.241v-15.097h-8.822v2.237h2.832c1.595,0,1.921,0.699,1.921,2.182v11.134
		c0,5.241,2.702,7.486,7.684,7.486c3.678,0,6.543-1.758,8.463-4.77h0.098V255.411z M232.664,234.617c5.925,0,7.78,4.484,7.78,9.628
		c0,5.159-1.855,9.637-7.78,9.637c-5.925,0-7.781-4.478-7.781-9.637C224.884,239.102,226.739,234.617,232.664,234.617
		 M232.664,232.379c-7.683,0-12.281,4.997-12.281,11.866c0,6.885,4.63,11.882,12.281,11.882c7.683,0,12.338-4.997,12.338-11.882
		C245.002,237.376,240.347,232.379,232.664,232.379 M218.617,235.325v-2.237h-5.273v-3.81c0-2.499,1.562-4.191,3.483-4.191
		c1.091,0,2.718,0.285,3.426,1.278c-0.993,0.097-1.92,0.7-1.92,1.856c0,1.245,0.513,2.335,2.465,2.335
		c1.628,0,2.849-0.96,2.849-2.718c0-4.069-4.289-4.997-7.007-4.997c-3.622,0-7.397,1.921-7.397,7.007v3.24h-5.087v2.237h5.087
		v15.643c0,1.481-0.318,2.214-1.921,2.214h-3.198v2.229h14.274v-2.229h-2.401c-1.538,0-2.718-0.7-2.718-2.214v-15.643H218.617z
		 M189.213,233.088h-12.354v2.237h0.993c1.758,0,2.629,0.765,3.426,2.522l8.065,17.661l-2.304,4.655
		c-0.903,1.823-2.368,3.125-4.736,3.125c-1.441,0-2.629-0.862-2.816-1.726c1.375,0,2.849-0.455,2.849-2.213
		c0-1.629-1.253-2.458-2.597-2.458c-1.277,0-2.946,0.863-2.946,3.775c0,3.012,2.662,4.867,5.445,4.867
		c3.394,0,6.145-2.051,7.39-4.867l9.986-22.348c0.765-1.725,1.855-2.995,3.231-2.995h1.343v-2.237h-11.361v2.237h1.343
		c1.921,0,2.914,0.423,2.914,1.14c0,0.684-0.188,1.172-0.317,1.546l-5.535,12.875l-4.736-11.182
		c-0.708-1.726-1.253-2.849-1.253-3.418c0-0.766,0.61-0.961,2.914-0.961h1.058V233.088z M162.046,235.325h4.061v15.366
		c0,2.637,1.343,5.436,5.534,5.436c5.095,0,6.503-3.011,6.503-7.649v-2.052h-2.247v2.751c0,2.751-1.343,4.672-3.329,4.672
		c-1.627,0-2.393-0.862-2.393-2.816v-15.739h6.78v-2.238h-6.78v-9.319h-2.499c-0.293,3.907-1.155,8.676-5.632,9.319V235.325z
		 M142.237,233.088h-9.025v2.237h3.108c1.563,0,1.921,0.699,1.921,2.182v13.429c0,1.481-0.326,2.213-1.921,2.213h-3.108v2.23h13.892
		v-2.23h-2.914c-1.571,0-1.92-0.699-1.92-2.213v-8.48c0-3.809,2.653-7.455,7.203-7.455c3.678,0,4.923,1.953,4.923,5.241v10.694
		c0,1.481-0.317,2.213-1.921,2.213h-2.621v2.23h13.339v-2.23h-2.849c-1.562,0-1.912-0.699-1.912-2.213V240.6
		c0-4.949-2.662-8.253-7.683-8.253c-3.678,0-6.527,1.758-8.447,4.769h-0.098v-4.027H142.237z M115.006,242.292
		c0-4.15,2.051-7.675,6.494-7.675c4.354,0,6.209,3.524,6.209,7.675H115.006z M132.219,244.538
		c-0.415-6.771-2.905-12.159-10.588-12.159c-7.072,0-11.166,4.053-11.166,11.866s4.094,11.882,11.166,11.882
		c5.632,0,8.928-2.832,9.986-7.976h-2.759c-0.984,3.712-3.321,5.73-7.162,5.73c-5.632,0-6.689-4.478-6.689-9.344H132.219z
		 M72.385,235.325h0.578c1.562,0,2.303,0.521,2.718,1.562l7.552,18.751h2.653l5.469-13.884l5.576,13.884h2.75l7.194-18.067
		c0.479-1.285,1.375-2.246,2.946-2.246h0.708v-2.237h-9.985v2.237h0.96c1.375,0,2.653,0.325,2.653,0.961
		c0,0.504-0.13,0.896-0.382,1.529l-4.867,13.038H98.81l-4.671-12.94c-0.252-0.699-0.57-1.188-0.57-1.725
		c0-0.57,0.383-0.863,1.725-0.863h1.954v-2.237H86.081v2.237h1.245c1.343,0,2.303,1.173,2.946,2.653l-5.119,12.518h-0.098
		l-4.704-12.729c-0.261-0.585-0.415-1.009-0.415-1.546c0-0.668,0.382-0.896,1.539-0.896h1.757v-2.237H72.417v2.237H72.385z
		 M57.629,235.325h4.069v15.366c0,2.637,1.343,5.436,5.534,5.436c5.087,0,6.495-3.011,6.495-7.649v-2.052h-2.238v2.751
		c0,2.751-1.343,4.672-3.329,4.672c-1.636,0-2.401-0.862-2.401-2.816v-15.739h6.779v-2.238H65.76v-9.319h-2.466
		c-0.285,3.907-1.147,8.676-5.632,9.319v2.271H57.629z"/>
	<g>
		<rect x="215.744" y="270.353" fill="#FFFFFF" width="2.49" height="36.853"/>
	</g>
</g>
</svg>
