<?xml version="1.0" encoding="utf-8"?>
<!-- Generator: Adobe Illustrator 16.0.0, SVG Export Plug-In . SVG Version: 6.00 Build 0)  -->
<!DOCTYPE svg PUBLIC "-//W3C//DTD SVG 1.1//EN" "http://www.w3.org/Graphics/SVG/1.1/DTD/svg11.dtd">
<svg version="1.1" id="Ebene_2" xmlns="http://www.w3.org/2000/svg" xmlns:xlink="http://www.w3.org/1999/xlink" x="0px" y="0px"
	 width="255.121px" height="255.121px" viewBox="0 0 255.121 255.121" enable-background="new 0 0 255.121 255.121"
	 xml:space="preserve">
<g>
	<rect x="15.5" y="15.5" width="223.997" height="223.989"/>
	<g>
		<g>
			<path fill="#FFFFFF" d="M47.875,181.914h-0.016c-0.417,0.763-0.867,1.18-1.862,1.18c-1.693,0-2.431-1.412-2.431-2.793
				c0-1.363,0.738-2.792,2.431-2.792c0.706,0,1.477,0.417,1.862,1.107h0.016v-1.958c0-0.361-0.145-0.642-0.53-0.642h-0.578v-0.522
				h2.054v6.5c0,0.265,0.152,0.409,0.401,0.409h0.65v0.521h-2.014v-1.011H47.875z M44.632,180.285c0,1.284,0.45,2.167,1.485,2.167
				c1.26,0,1.725-1.044,1.725-2.167c0-1.115-0.465-2.158-1.613-2.158C45.098,178.126,44.632,179.169,44.632,180.285z"/>
			<path fill="#FFFFFF" d="M55.241,181.961h-0.016c-0.449,0.715-1.124,1.116-1.99,1.116c-1.188,0-1.798-0.514-1.798-1.766v-2.616
				c0-0.354-0.08-0.521-0.449-0.521h-0.674v-0.521H52.4v3.547c0,0.778,0.281,1.235,1.147,1.235c1.076,0,1.693-0.851,1.693-1.749
				v-2.006c0-0.346-0.08-0.522-0.449-0.522h-0.674v-0.521h2.086v4.213c0,0.346,0.08,0.521,0.434,0.521h0.73v0.521h-2.11v-0.931
				H55.241z M53.219,176.176c0,0.321-0.273,0.594-0.602,0.594s-0.602-0.257-0.602-0.594c0-0.354,0.272-0.61,0.602-0.61
				S53.219,175.823,53.219,176.176z M55.505,176.176c0,0.321-0.265,0.594-0.602,0.594c-0.329,0-0.594-0.257-0.594-0.594
				c0-0.354,0.265-0.61,0.594-0.61C55.241,175.566,55.505,175.823,55.505,176.176z"/>
			<path fill="#FFFFFF" d="M58.563,180.798c0.176,1.067,1.027,1.766,2.086,1.766c0.674,0,1.171-0.338,1.171-0.867
				c0-1.46-3.771-0.337-3.771-2.64c0-1.115,1.019-1.549,1.998-1.549c0.634,0,1.26,0.225,1.741,0.649l0.201-0.521h0.505v2.07h-0.521
				c-0.128-0.995-0.979-1.652-1.894-1.652c-0.49,0-1.067,0.168-1.067,0.898c0,1.332,3.763,0.321,3.763,2.536
				c0,1.188-1.051,1.62-2.078,1.62c-0.698,0-1.388-0.217-1.91-0.689l-0.225,0.577h-0.578v-2.166h0.578V180.798z"/>
			<path fill="#FFFFFF" d="M64.164,180.798c0.176,1.067,1.027,1.766,2.086,1.766c0.674,0,1.164-0.338,1.164-0.867
				c0-1.46-3.763-0.337-3.763-2.64c0-1.115,1.019-1.549,1.998-1.549c0.634,0,1.26,0.225,1.741,0.649l0.201-0.521h0.505v2.07h-0.521
				c-0.128-0.995-0.979-1.652-1.894-1.652c-0.49,0-1.067,0.168-1.067,0.898c0,1.332,3.763,0.321,3.763,2.536
				c0,1.188-1.051,1.62-2.078,1.62c-0.698,0-1.396-0.217-1.91-0.689l-0.225,0.577h-0.578v-2.166h0.578V180.798z"/>
			<path fill="#FFFFFF" d="M70.102,180.365c0,1.155,0.249,2.199,1.573,2.199c0.898,0,1.452-0.481,1.685-1.349h0.65
				c-0.249,1.22-1.027,1.878-2.351,1.878c-1.653,0-2.616-0.947-2.616-2.793c0-1.845,0.963-2.792,2.616-2.792
				c1.797,0,2.383,1.268,2.487,2.856H70.102z M73.095,179.835c0-0.979-0.441-1.798-1.453-1.798c-1.043,0-1.524,0.835-1.524,1.798
				H73.095z"/>
			<path fill="#FFFFFF" d="M76.738,181.881c0,0.345,0.08,0.521,0.441,0.521h0.707v0.521h-3.29v-0.521h0.722
				c0.369,0,0.441-0.177,0.441-0.521v-5.353c0-0.337-0.265-0.513-0.441-0.513h-0.722v-0.522h2.126v6.388H76.738z"/>
			<path fill="#FFFFFF" d="M82.764,181.914h-0.016c-0.41,0.763-0.867,1.18-1.862,1.18c-1.685,0-2.423-1.412-2.423-2.793
				c0-1.363,0.738-2.792,2.423-2.792c0.706,0,1.484,0.417,1.862,1.107h0.016v-1.958c0-0.361-0.144-0.642-0.521-0.642h-0.585v-0.522
				h2.054v6.5c0,0.265,0.16,0.409,0.409,0.409h0.65v0.521h-2.022v-1.011H82.764z M79.531,180.285c0,1.284,0.441,2.167,1.484,2.167
				c1.26,0,1.717-1.044,1.717-2.167c0-1.115-0.458-2.158-1.605-2.158C79.988,178.126,79.531,179.169,79.531,180.285z"/>
			<path fill="#FFFFFF" d="M90.998,180.285c0,1.613-1.091,2.793-2.889,2.793c-1.797,0-2.88-1.18-2.88-2.793
				c0-1.604,1.083-2.793,2.88-2.793C89.906,177.492,90.998,178.68,90.998,180.285z M86.279,180.285c0,1.22,0.45,2.279,1.83,2.279
				c1.396,0,1.83-1.06,1.83-2.279c0-1.212-0.433-2.263-1.83-2.263C86.712,178.038,86.279,179.073,86.279,180.285z"/>
			<path fill="#FFFFFF" d="M93.646,178.808h0.016c0.289-0.771,0.947-1.3,1.597-1.3c0.762,0,1.26,0.417,1.26,1.188
				c0,0.426-0.176,0.754-0.626,0.754c-0.305,0-0.634-0.192-0.634-0.513c0-0.418,0.265-0.595,0.682-0.595
				c-0.064-0.248-0.417-0.305-0.65-0.305c-1.051,0-1.613,1.212-1.613,2.327v1.517c0,0.345,0.208,0.521,0.569,0.521h0.602v0.521
				h-3.298v-0.521h0.73c0.361,0,0.433-0.177,0.433-0.521v-3.153c0-0.354-0.072-0.521-0.433-0.521h-0.778v-0.521h2.126v1.123H93.646z
				"/>
			<path fill="#FFFFFF" d="M99.198,178.19v3.676c0,0.345,0.289,0.521,0.65,0.521h0.57v0.521h-3.362v-0.521h0.762
				c0.361,0,0.434-0.177,0.434-0.521v-3.676h-1.196v-0.521h1.196v-0.754c0-1.204,0.883-1.653,1.741-1.653
				c0.65,0,1.661,0.217,1.661,1.18c0,0.409-0.289,0.65-0.682,0.65c-0.458,0-0.586-0.257-0.586-0.562c0-0.265,0.225-0.4,0.441-0.433
				c-0.168-0.241-0.554-0.306-0.802-0.306c-0.441,0-0.827,0.418-0.827,0.995v0.899h1.252v0.521h-1.252V178.19z"/>
			<path fill="#FFFFFF" d="M144.584,181.881c0,0.345,0.08,0.521,0.449,0.521h0.706v0.521h-3.298v-0.521h0.73
				c0.36,0,0.433-0.177,0.433-0.521v-5.353c0-0.337-0.265-0.513-0.433-0.513h-0.73v-0.522h2.126v6.388H144.584z"/>
			<path fill="#FFFFFF" d="M151.983,180.285c0,1.613-1.084,2.793-2.881,2.793c-1.806,0-2.889-1.18-2.889-2.793
				c0-1.604,1.083-2.793,2.889-2.793C150.899,177.492,151.983,178.68,151.983,180.285z M147.264,180.285
				c0,1.22,0.449,2.279,1.838,2.279c1.388,0,1.829-1.06,1.829-2.279c0-1.212-0.441-2.263-1.829-2.263
				C147.713,178.038,147.264,179.073,147.264,180.285z"/>
			<path fill="#FFFFFF" d="M153.203,180.798c0.176,1.067,1.027,1.766,2.086,1.766c0.674,0,1.164-0.338,1.164-0.867
				c0-1.46-3.771-0.337-3.771-2.64c0-1.115,1.026-1.549,1.998-1.549c0.642,0,1.268,0.225,1.741,0.649l0.2-0.521h0.514v2.07h-0.529
				c-0.121-0.995-0.979-1.652-1.894-1.652c-0.481,0-1.067,0.168-1.067,0.898c0,1.332,3.771,0.321,3.771,2.536
				c0,1.188-1.06,1.62-2.079,1.62c-0.697,0-1.396-0.217-1.909-0.689l-0.225,0.577h-0.586v-2.166h0.586V180.798z"/>
			<path fill="#FFFFFF" d="M166.025,181.961c0,0.329,0.097,0.603,0.289,0.603c0.481,0,0.514-0.635,0.514-0.947v-0.481h0.529v0.337
				c0,1.188-0.417,1.621-1.268,1.621c-0.562,0-0.898-0.329-0.995-0.867c-0.545,0.603-1.18,0.867-1.99,0.867
				c-0.914,0-1.652-0.401-1.652-1.396c0-1.46,2.021-1.444,3.161-1.974c0.337-0.177,0.418-0.386,0.418-0.706
				c0-0.658-0.281-0.963-1.261-0.963c-0.44,0-0.994,0.056-1.308,0.433c0.329,0.064,0.521,0.241,0.521,0.57
				c0,0.441-0.361,0.602-0.682,0.602c-0.394,0-0.578-0.353-0.578-0.786c0-0.947,1.276-1.349,2.127-1.349
				c1.292,0,2.126,0.386,2.126,1.846v2.592H166.025z M165.062,180.052c-0.481,0.28-0.994,0.393-1.652,0.682
				c-0.603,0.249-0.851,0.498-0.851,0.898c0,0.578,0.312,0.932,0.883,0.932c0.738,0,1.62-0.698,1.62-1.469V180.052z"/>
			<path fill="#FFFFFF" d="M169.813,178.616h0.016c0.441-0.706,1.124-1.124,1.99-1.124c1.18,0,1.798,0.779,1.798,1.942v2.432
				c0,0.345,0.08,0.521,0.441,0.521h0.682v0.521h-3.13v-0.521h0.618c0.361,0,0.441-0.177,0.441-0.521v-2.512
				c0-0.771-0.289-1.228-1.155-1.228c-1.075,0-1.686,0.858-1.686,1.757v1.998c0,0.345,0.08,0.521,0.441,0.521h0.683v0.521h-3.274
				v-0.521h0.73c0.361,0,0.441-0.177,0.441-0.521v-3.153c0-0.354-0.08-0.521-0.441-0.521h-0.73v-0.521h2.118v0.931H169.813z"/>
			<path fill="#FFFFFF" d="M178.945,182.291c1.669,0,2.311,0.489,2.311,1.404c0,1.06-1.059,1.613-3.001,1.613
				c-1.798,0-2.841-0.417-2.841-1.3c0-0.706,0.61-0.963,1.188-0.995v-0.017c-0.529,0-0.979-0.353-0.979-0.914
				c0-0.546,0.465-0.987,0.995-1.084c-0.578-0.329-0.795-0.946-0.795-1.564c0-1.364,1.244-1.926,2.448-1.926
				c0.657,0,1.291,0.24,1.813,0.649c0.28-0.345,0.674-0.649,1.155-0.649c0.609,0,1.067,0.369,1.067,0.995
				c0,0.449-0.201,0.714-0.666,0.714c-0.329,0-0.514-0.232-0.514-0.537c0-0.338,0.217-0.474,0.529-0.474
				c-0.097-0.137-0.28-0.169-0.481-0.169c-0.305,0-0.65,0.217-0.834,0.434c0.168,0.337,0.305,0.73,0.305,1.204
				c0,0.882-0.915,1.797-2.375,1.797c-0.915,0-1.06-0.225-1.252-0.225c-0.297,0-0.578,0.272-0.578,0.569
				c0,0.329,0.297,0.458,0.642,0.458h1.862V182.291z M177.588,183.109c-0.666,0-1.34,0.289-1.34,0.787
				c0,0.746,0.995,0.874,2.135,0.874c1.099,0,2.029-0.28,2.029-0.843c0-0.577-0.393-0.818-1.115-0.818H177.588z M176.89,179.499
				c0,0.866,0.418,1.452,1.364,1.452c0.947,0,1.356-0.602,1.356-1.452s-0.409-1.461-1.356-1.461
				C177.292,178.038,176.89,178.631,176.89,179.499z"/>
			<path fill="#FFFFFF" d="M183.759,180.365c0,1.155,0.257,2.199,1.572,2.199c0.899,0,1.461-0.481,1.693-1.349h0.65
				c-0.257,1.22-1.027,1.878-2.359,1.878c-1.653,0-2.616-0.947-2.616-2.793c0-1.845,0.963-2.792,2.616-2.792
				c1.798,0,2.392,1.268,2.496,2.856H183.759z M186.745,179.835c0-0.979-0.45-1.798-1.461-1.798c-1.035,0-1.524,0.835-1.524,1.798
				H186.745z"/>
			<path fill="#FFFFFF" d="M190.404,181.881c0,0.345,0.08,0.521,0.433,0.521h0.715v0.521h-3.299v-0.521h0.723
				c0.369,0,0.449-0.177,0.449-0.521v-5.353c0-0.337-0.272-0.513-0.449-0.513h-0.723v-0.522h2.135v6.388H190.404z"/>
			<path fill="#FFFFFF" d="M193.099,180.365c0,1.155,0.249,2.199,1.573,2.199c0.898,0,1.452-0.481,1.686-1.349h0.657
				c-0.257,1.22-1.026,1.878-2.358,1.878c-1.653,0-2.616-0.947-2.616-2.793c0-1.845,0.963-2.792,2.616-2.792
				c1.797,0,2.383,1.268,2.495,2.856H193.099z M196.084,179.835c0-0.979-0.449-1.798-1.46-1.798c-1.043,0-1.525,0.835-1.525,1.798
				H196.084z"/>
			<path fill="#FFFFFF" d="M198.379,180.798c0.177,1.067,1.027,1.766,2.087,1.766c0.674,0,1.171-0.338,1.171-0.867
				c0-1.46-3.771-0.337-3.771-2.64c0-1.115,1.02-1.549,1.998-1.549c0.635,0,1.26,0.225,1.741,0.649l0.201-0.521h0.506v2.07h-0.522
				c-0.128-0.995-0.979-1.652-1.894-1.652c-0.489,0-1.067,0.168-1.067,0.898c0,1.332,3.764,0.321,3.764,2.536
				c0,1.188-1.051,1.62-2.078,1.62c-0.698,0-1.396-0.217-1.91-0.689l-0.225,0.577h-0.577v-2.166h0.577V180.798z"/>
		</g>
		<g>
			<path fill="#FFFFFF" d="M123.528,179.594c0,0.361-0.257,0.626-0.626,0.626c-0.385,0-0.634-0.265-0.634-0.626
				c0-0.36,0.249-0.626,0.634-0.626C123.271,178.968,123.528,179.234,123.528,179.594z"/>
		</g>
		<rect x="71.065" y="78.981" fill="#FFFFFF" width="34.336" height="9.589"/>
		<rect x="71.065" y="68.16" fill="#FFFFFF" width="34.336" height="9.589"/>
		<rect x="106.709" y="78.981" fill="#FFFFFF" width="34.344" height="9.589"/>
		<rect x="106.709" y="68.16" fill="#FFFFFF" width="34.344" height="9.589"/>
		<rect x="106.709" y="100.719" fill="#FFFFFF" width="34.344" height="9.589"/>
		<rect x="106.709" y="89.898" fill="#FFFFFF" width="34.344" height="9.589"/>
		<rect x="142.29" y="100.719" fill="#FFFFFF" width="34.344" height="9.589"/>
		<path fill="#FFFFFF" d="M209.662,144.006h0.08l1.356-2.744h0.017v2.062c0,0.449,0.016,0.449-0.441,0.497v0.152h1.412v-0.152
			c-0.449-0.048-0.434-0.048-0.434-0.497v-2.223c0-0.298,0.129-0.49,0.498-0.506v-0.16h-0.851l-1.429,2.76l-1.38-2.76h-1.012v0.16
			c0.257,0,0.514,0.177,0.626,0.449v2.198c0,0.386-0.08,0.53-0.481,0.578v0.152h1.14v-0.152c-0.385-0.048-0.457-0.192-0.457-0.578
			v-1.966h0.016L209.662,144.006z M205.875,140.596h0.441c0.361,0,0.521,0.289,0.602,0.602h0.16v-0.762h-2.969v0.778h0.16
			c0.081-0.329,0.217-0.603,0.595-0.603h0.449v2.713c0,0.449,0.016,0.449-0.449,0.497v0.152h1.436v-0.152
			c-0.457-0.048-0.441-0.048-0.441-0.497v-2.729H205.875z M194.8,144.777c0-2.046,1.012-3.779,3.202-3.779
			c2.143,0,3.058,1.733,3.058,3.779H194.8z M203.291,145.884c-0.209-3.347-1.437-5.994-5.224-5.994c-3.491,0-5.505,2.006-5.505,5.85
			c0,3.852,2.014,5.85,5.505,5.85c2.776,0,4.405-1.38,4.902-3.924h-1.348c-0.498,1.83-1.646,2.824-3.539,2.824
			c-2.776,0-3.298-2.206-3.298-4.605H203.291z M182.435,140.251h-4.453v1.099h1.532c0.778,0,0.947,0.354,0.947,1.075v6.629
			c0,0.722-0.169,1.091-0.947,1.091h-1.532v1.1h6.853v-1.1h-1.444c-0.771,0-0.947-0.353-0.947-1.091v-4.181
			c0-1.878,1.316-3.676,3.555-3.676c1.814,0,2.432,0.963,2.432,2.592v5.265c0,0.722-0.16,1.091-0.946,1.091h-1.301v1.1h6.58v-1.1
			h-1.396c-0.778,0-0.947-0.353-0.947-1.091v-5.096c0-2.447-1.316-4.068-3.787-4.068c-1.813,0-3.227,0.866-4.173,2.343h-0.04v-1.981
			H182.435z M171.707,141.013c2.921,0,3.836,2.199,3.836,4.742c0,2.544-0.915,4.751-3.836,4.751s-3.836-2.207-3.836-4.751
			C167.871,143.212,168.802,141.013,171.707,141.013 M171.707,139.89c-3.787,0-6.074,2.455-6.074,5.85s2.287,5.85,6.074,5.85
			s6.074-2.455,6.074-5.85C177.781,142.362,175.494,139.89,171.707,139.89 M155.336,140.251h-4.469v1.099h1.629
			c0.77,0,0.946,0.354,0.946,1.075v6.629c0,0.722-0.16,1.091-0.946,1.091h-1.549v1.1h6.909v-1.1h-1.284
			c-0.755,0-1.164-0.353-1.164-1.091v-3.17c0-2.335,1.147-4.887,3.362-4.887c0.521,0,1.244,0.104,1.372,0.658
			c-0.851,0-1.42,0.377-1.42,1.235c0,0.674,0.674,1.083,1.324,1.083c0.946,0,1.308-0.682,1.308-1.581
			c0-1.62-1.059-2.487-2.647-2.487c-1.356,0-2.745,1.107-3.347,2.729h-0.04v-2.383H155.336z M146.767,151.245h4.445v-1.1h-1.524
			c-0.778,0-0.947-0.353-0.947-1.091v-8.819h-4.373v1.1h1.437c0.771,0,0.946,0.353,0.946,1.075v4.188
			c0,1.87-1.332,3.676-3.547,3.676c-1.813,0-2.431-0.964-2.431-2.593v-7.446h-4.357v1.1h1.404c0.778,0,0.946,0.353,0.946,1.075
			v5.473c0,2.592,1.324,3.691,3.788,3.691c1.813,0,3.218-0.867,4.164-2.344h0.049V151.245z M130.606,141.013
			c2.921,0,3.835,2.199,3.835,4.742c0,2.544-0.914,4.751-3.835,4.751c-2.913,0-3.828-2.207-3.828-4.751
			C126.778,143.212,127.693,141.013,130.606,141.013 M130.606,139.89c-3.78,0-6.051,2.455-6.051,5.85s2.287,5.85,6.051,5.85
			c3.787,0,6.082-2.455,6.082-5.85C136.688,142.362,134.393,139.89,130.606,139.89 M123.688,141.35v-1.099h-2.6v-1.878
			c0-1.228,0.771-2.062,1.717-2.062c0.529,0,1.332,0.137,1.685,0.626c-0.49,0.048-0.947,0.353-0.947,0.915
			c0,0.617,0.257,1.155,1.22,1.155c0.802,0,1.396-0.481,1.396-1.349c0-1.998-2.11-2.455-3.45-2.455c-1.782,0-3.643,0.947-3.643,3.45
			v1.598h-2.512v1.099h2.512v7.72c0,0.723-0.161,1.092-0.947,1.092h-1.581v1.099h7.037v-1.099h-1.188
			c-0.754,0-1.332-0.354-1.332-1.092v-7.72H123.688z M109.188,140.251h-6.09v1.099h0.489c0.867,0,1.292,0.386,1.693,1.252
			l3.972,8.707l-1.131,2.286c-0.45,0.899-1.172,1.549-2.343,1.549c-0.706,0-1.292-0.425-1.38-0.858c0.674,0,1.396-0.217,1.396-1.083
			c0-0.803-0.61-1.212-1.276-1.212c-0.634,0-1.453,0.417-1.453,1.861c0,1.477,1.316,2.392,2.68,2.392
			c1.677,0,3.033-1.011,3.643-2.392l4.927-11.009c0.377-0.859,0.915-1.493,1.589-1.493h0.666v-1.099h-5.601v1.099h0.666
			c0.947,0,1.428,0.209,1.428,0.578c0,0.321-0.088,0.562-0.152,0.754l-2.745,6.34l-2.335-5.505
			c-0.353-0.851-0.618-1.404-0.618-1.686c0-0.385,0.297-0.481,1.436-0.481h0.521v-1.099H109.188z M95.796,141.35h2.006v7.575
			c0,1.316,0.658,2.681,2.728,2.681c2.504,0,3.202-1.477,3.202-3.771v-1.004h-1.107v1.356c0,1.356-0.666,2.303-1.645,2.303
			c-0.802,0-1.171-0.425-1.171-1.388v-7.768h3.338v-1.1h-3.338v-4.59h-1.236c-0.145,1.926-0.57,4.277-2.776,4.59V141.35z
			 M86.03,140.251h-4.454v1.099h1.541c0.77,0,0.947,0.354,0.947,1.075v6.629c0,0.722-0.161,1.091-0.947,1.091h-1.541v1.1h6.853v-1.1
			h-1.437c-0.778,0-0.947-0.353-0.947-1.091v-4.181c0-1.878,1.308-3.676,3.555-3.676c1.813,0,2.423,0.963,2.423,2.592v5.265
			c0,0.722-0.161,1.091-0.947,1.091h-1.292v1.1h6.572v-1.1h-1.396c-0.771,0-0.947-0.353-0.947-1.091v-5.096
			c0-2.447-1.316-4.068-3.788-4.068c-1.813,0-3.218,0.866-4.165,2.343h-0.048v-1.981H86.03z M72.605,144.777
			c0-2.046,1.011-3.779,3.202-3.779c2.143,0,3.058,1.733,3.058,3.779H72.605z M81.095,145.884c-0.208-3.347-1.437-5.994-5.224-5.994
			c-3.491,0-5.505,2.006-5.505,5.85c0,3.852,2.014,5.85,5.505,5.85c2.776,0,4.405-1.38,4.919-3.924h-1.356
			c-0.489,1.83-1.637,2.824-3.531,2.824c-2.776,0-3.298-2.206-3.298-4.605H81.095z M51.598,141.35h0.281
			c0.771,0,1.131,0.257,1.34,0.778l3.723,9.244h1.308l2.696-6.845l2.752,6.845h1.348l3.547-8.915
			c0.241-0.626,0.682-1.107,1.46-1.107h0.345v-1.099H65.48v1.099h0.465c0.682,0,1.316,0.161,1.316,0.481
			c0,0.249-0.064,0.434-0.192,0.755l-2.399,6.419h-0.048l-2.303-6.371c-0.128-0.354-0.281-0.586-0.281-0.851
			c0-0.289,0.185-0.434,0.851-0.434h0.963v-1.099h-5.505v1.099h0.618c0.658,0,1.132,0.594,1.444,1.316l-2.52,6.163h-0.048
			l-2.335-6.275c-0.128-0.289-0.2-0.489-0.2-0.755c0-0.337,0.184-0.449,0.754-0.449h0.867v-1.099h-5.328V141.35z M44.319,141.35
			h2.006v7.575c0,1.316,0.666,2.681,2.728,2.681c2.512,0,3.202-1.477,3.202-3.771v-1.004h-1.107v1.356
			c0,1.356-0.658,2.303-1.637,2.303c-0.802,0-1.188-0.425-1.188-1.388v-7.768h3.346v-1.1h-3.346v-4.59h-1.212
			c-0.136,1.926-0.569,4.277-2.776,4.59v1.115H44.319z"/>
	</g>
</g>
</svg>
